<svg xmlns="http://www.w3.org/2000/svg" xmlns:xlink="http://www.w3.org/1999/xlink" width="800" zoomAndPan="magnify" viewBox="0 0 600 599.999999" height="800" preserveAspectRatio="xMidYMid meet" version="1.0"><defs><clipPath id="ca87283e99"><path d="M 60 60.304688 L 327 60.304688 L 327 299.769531 L 60 299.769531 Z M 60 60.304688 " clip-rule="nonzero"/></clipPath><clipPath id="1a13309db8"><path d="M 132.402344 120 L 254.652344 120 L 254.652344 191.984375 L 132.402344 191.984375 Z M 132.402344 120 " clip-rule="nonzero"/></clipPath></defs><g clip-path="url(#ca87283e99)"><path fill="#a5d4ad" d="M 193.5 240.882812 C 191.328125 240.882812 189.5625 239.117188 189.5625 236.945312 C 189.5625 234.769531 191.328125 233.003906 193.5 233.003906 C 195.671875 233.003906 197.4375 234.769531 197.4375 236.945312 C 197.4375 239.117188 195.671875 240.882812 193.5 240.882812 Z M 193.5 227.550781 C 188.316406 227.550781 184.113281 231.769531 184.113281 236.945312 C 184.113281 242.128906 188.316406 246.335938 193.5 246.335938 C 198.683594 246.335938 202.886719 242.128906 202.886719 236.945312 C 202.886719 231.769531 198.683594 227.550781 193.5 227.550781 Z M 307.214844 254.25 L 79.785156 254.25 C 71.878906 254.25 65.449219 247.371094 65.449219 238.902344 L 65.449219 219.636719 L 321.550781 219.636719 L 321.550781 238.902344 C 321.550781 247.371094 315.121094 254.25 307.214844 254.25 Z M 225.289062 294.316406 L 161.710938 294.316406 L 173.480469 259.703125 L 213.519531 259.703125 Z M 79.785156 65.769531 L 307.214844 65.769531 C 315.121094 65.769531 321.550781 72.648438 321.550781 81.117188 L 321.550781 214.183594 L 65.449219 214.183594 L 65.449219 81.117188 C 65.449219 72.648438 71.878906 65.769531 79.785156 65.769531 Z M 307.214844 60.316406 L 79.785156 60.316406 C 68.875 60.316406 60 69.644531 60 81.117188 L 60 238.902344 C 60 250.375 68.875 259.703125 79.785156 259.703125 L 167.722656 259.703125 L 155.324219 296.171875 C 155.046875 297 155.175781 297.917969 155.6875 298.632812 C 156.207031 299.34375 157.027344 299.769531 157.910156 299.769531 L 229.089844 299.769531 C 229.972656 299.769531 230.792969 299.34375 231.3125 298.632812 C 231.824219 297.917969 231.953125 297 231.675781 296.171875 L 219.277344 259.703125 L 307.214844 259.703125 C 318.125 259.703125 327 250.375 327 238.902344 L 327 81.117188 C 327 69.644531 318.125 60.316406 307.214844 60.316406 " fill-opacity="1" fill-rule="nonzero"/></g><path fill="#a5d4ad" d="M 540 357.390625 L 540 315.652344 C 540 314.625 539.898438 313.605469 539.695312 312.601562 C 539.496094 311.59375 539.199219 310.613281 538.804688 309.664062 C 538.410156 308.714844 537.929688 307.816406 537.355469 306.960938 C 536.785156 306.105469 536.136719 305.316406 535.410156 304.589844 C 534.683594 303.863281 533.894531 303.214844 533.039062 302.644531 C 532.183594 302.070312 531.285156 301.589844 530.335938 301.195312 C 529.386719 300.800781 528.40625 300.503906 527.398438 300.304688 C 526.394531 300.101562 525.375 300 524.347656 300 L 315.652344 300 C 314.625 300 313.605469 300.101562 312.601562 300.304688 C 311.59375 300.503906 310.613281 300.800781 309.664062 301.195312 C 308.714844 301.589844 307.8125 302.070312 306.960938 302.644531 C 306.105469 303.214844 305.316406 303.863281 304.589844 304.589844 C 303.863281 305.316406 303.214844 306.105469 302.644531 306.960938 C 302.070312 307.8125 301.589844 308.714844 301.195312 309.664062 C 300.800781 310.613281 300.503906 311.59375 300.304688 312.601562 C 300.101562 313.605469 300 314.625 300 315.652344 L 300 357.390625 C 300 358.417969 300.101562 359.4375 300.304688 360.445312 C 300.503906 361.453125 300.800781 362.429688 301.195312 363.378906 C 301.589844 364.328125 302.070312 365.230469 302.644531 366.082031 C 303.214844 366.9375 303.863281 367.726562 304.589844 368.453125 C 305.316406 369.179688 306.105469 369.828125 306.960938 370.398438 C 307.8125 370.972656 308.714844 371.453125 309.664062 371.847656 C 310.613281 372.242188 311.59375 372.539062 312.601562 372.738281 C 313.605469 372.941406 314.625 373.042969 315.652344 373.042969 L 315.652344 383.476562 C 314.625 383.480469 313.605469 383.582031 312.601562 383.78125 C 311.59375 383.984375 310.613281 384.28125 309.664062 384.675781 C 308.714844 385.066406 307.8125 385.550781 306.960938 386.121094 C 306.105469 386.691406 305.316406 387.339844 304.589844 388.066406 C 303.863281 388.792969 303.214844 389.585938 302.644531 390.4375 C 302.070312 391.292969 301.589844 392.195312 301.195312 393.144531 C 300.800781 394.09375 300.503906 395.070312 300.304688 396.078125 C 300.101562 397.085938 300 398.101562 300 399.128906 L 300 440.871094 C 300 441.898438 300.101562 442.914062 300.304688 443.921875 C 300.503906 444.929688 300.800781 445.90625 301.195312 446.855469 C 301.589844 447.804688 302.070312 448.707031 302.644531 449.5625 C 303.214844 450.414062 303.863281 451.207031 304.589844 451.933594 C 305.316406 452.660156 306.105469 453.308594 306.960938 453.878906 C 307.8125 454.449219 308.714844 454.933594 309.664062 455.324219 C 310.613281 455.71875 311.59375 456.015625 312.601562 456.21875 C 313.605469 456.417969 314.625 456.519531 315.652344 456.523438 L 315.652344 466.957031 C 314.625 466.957031 313.605469 467.058594 312.601562 467.261719 C 311.59375 467.460938 310.613281 467.757812 309.664062 468.152344 C 308.714844 468.546875 307.8125 469.027344 306.960938 469.601562 C 306.105469 470.171875 305.316406 470.820312 304.589844 471.546875 C 303.863281 472.273438 303.214844 473.0625 302.644531 473.917969 C 302.070312 474.769531 301.589844 475.671875 301.195312 476.621094 C 300.800781 477.570312 300.503906 478.546875 300.304688 479.554688 C 300.101562 480.5625 300 481.582031 300 482.609375 L 300 524.347656 C 300 525.375 300.101562 526.394531 300.304688 527.398438 C 300.503906 528.40625 300.800781 529.386719 301.195312 530.335938 C 301.589844 531.285156 302.070312 532.1875 302.644531 533.039062 C 303.214844 533.894531 303.863281 534.683594 304.589844 535.410156 C 305.316406 536.136719 306.105469 536.785156 306.960938 537.355469 C 307.8125 537.929688 308.714844 538.410156 309.664062 538.804688 C 310.613281 539.199219 311.59375 539.496094 312.601562 539.695312 C 313.605469 539.898438 314.625 540 315.652344 540 L 524.347656 540 C 525.375 540 526.394531 539.898438 527.398438 539.695312 C 528.40625 539.496094 529.386719 539.199219 530.335938 538.804688 C 531.285156 538.410156 532.183594 537.929688 533.039062 537.355469 C 533.894531 536.785156 534.683594 536.136719 535.410156 535.410156 C 536.136719 534.683594 536.785156 533.894531 537.355469 533.039062 C 537.929688 532.183594 538.410156 531.285156 538.804688 530.335938 C 539.199219 529.386719 539.496094 528.40625 539.695312 527.398438 C 539.898438 526.394531 540 525.375 540 524.347656 L 540 482.609375 C 540 481.582031 539.898438 480.5625 539.695312 479.554688 C 539.496094 478.546875 539.199219 477.570312 538.804688 476.621094 C 538.410156 475.671875 537.929688 474.769531 537.355469 473.917969 C 536.785156 473.0625 536.136719 472.273438 535.410156 471.546875 C 534.683594 470.820312 533.894531 470.171875 533.039062 469.601562 C 532.183594 469.027344 531.285156 468.546875 530.335938 468.152344 C 529.386719 467.757812 528.40625 467.460938 527.398438 467.261719 C 526.394531 467.058594 525.375 466.957031 524.347656 466.957031 L 524.347656 456.523438 C 525.375 456.519531 526.394531 456.417969 527.398438 456.21875 C 528.40625 456.015625 529.386719 455.71875 530.335938 455.324219 C 531.285156 454.933594 532.183594 454.449219 533.039062 453.878906 C 533.894531 453.308594 534.683594 452.660156 535.410156 451.933594 C 536.136719 451.207031 536.785156 450.414062 537.355469 449.5625 C 537.929688 448.707031 538.410156 447.804688 538.804688 446.855469 C 539.199219 445.90625 539.496094 444.929688 539.695312 443.921875 C 539.898438 442.914062 540 441.898438 540 440.871094 L 540 399.128906 C 540 398.101562 539.898438 397.085938 539.695312 396.078125 C 539.496094 395.070312 539.199219 394.09375 538.804688 393.144531 C 538.410156 392.195312 537.929688 391.292969 537.355469 390.4375 C 536.785156 389.585938 536.136719 388.792969 535.410156 388.066406 C 534.683594 387.339844 533.894531 386.691406 533.039062 386.121094 C 532.183594 385.550781 531.285156 385.066406 530.335938 384.675781 C 529.386719 384.28125 528.40625 383.984375 527.398438 383.78125 C 526.394531 383.582031 525.375 383.480469 524.347656 383.476562 L 524.347656 373.042969 C 525.375 373.042969 526.394531 372.941406 527.398438 372.738281 C 528.40625 372.539062 529.386719 372.242188 530.335938 371.847656 C 531.285156 371.453125 532.183594 370.972656 533.039062 370.398438 C 533.894531 369.828125 534.683594 369.179688 535.410156 368.453125 C 536.136719 367.726562 536.785156 366.9375 537.355469 366.082031 C 537.929688 365.230469 538.410156 364.328125 538.804688 363.378906 C 539.199219 362.429688 539.496094 361.453125 539.695312 360.445312 C 539.898438 359.4375 540 358.417969 540 357.390625 Z M 310.433594 357.390625 L 310.433594 315.652344 C 310.433594 315.308594 310.46875 314.96875 310.535156 314.632812 C 310.601562 314.296875 310.703125 313.972656 310.832031 313.65625 C 310.964844 313.339844 311.125 313.039062 311.316406 312.753906 C 311.507812 312.46875 311.722656 312.207031 311.964844 311.964844 C 312.207031 311.722656 312.46875 311.507812 312.753906 311.316406 C 313.039062 311.125 313.339844 310.964844 313.65625 310.832031 C 313.972656 310.703125 314.296875 310.601562 314.632812 310.535156 C 314.96875 310.46875 315.308594 310.433594 315.652344 310.433594 L 524.347656 310.433594 C 524.691406 310.433594 525.03125 310.46875 525.367188 310.535156 C 525.703125 310.601562 526.027344 310.703125 526.34375 310.832031 C 526.660156 310.964844 526.960938 311.125 527.246094 311.316406 C 527.53125 311.503906 527.792969 311.722656 528.035156 311.964844 C 528.277344 312.207031 528.496094 312.46875 528.683594 312.753906 C 528.875 313.039062 529.035156 313.339844 529.167969 313.65625 C 529.296875 313.972656 529.398438 314.296875 529.464844 314.632812 C 529.53125 314.96875 529.566406 315.308594 529.566406 315.652344 L 529.566406 357.390625 C 529.566406 357.734375 529.53125 358.074219 529.464844 358.410156 C 529.398438 358.746094 529.296875 359.070312 529.167969 359.386719 C 529.035156 359.703125 528.875 360.003906 528.683594 360.289062 C 528.496094 360.574219 528.277344 360.835938 528.035156 361.078125 C 527.792969 361.320312 527.53125 361.539062 527.246094 361.726562 C 526.960938 361.917969 526.660156 362.078125 526.34375 362.210938 C 526.027344 362.34375 525.703125 362.441406 525.367188 362.507812 C 525.03125 362.574219 524.691406 362.609375 524.347656 362.609375 L 315.652344 362.609375 C 315.308594 362.609375 314.96875 362.574219 314.632812 362.507812 C 314.296875 362.441406 313.972656 362.339844 313.65625 362.210938 C 313.339844 362.078125 313.039062 361.917969 312.753906 361.726562 C 312.46875 361.539062 312.207031 361.320312 311.964844 361.078125 C 311.722656 360.835938 311.507812 360.574219 311.316406 360.289062 C 311.125 360.003906 310.964844 359.703125 310.832031 359.386719 C 310.703125 359.070312 310.601562 358.746094 310.535156 358.410156 C 310.46875 358.074219 310.433594 357.734375 310.433594 357.390625 Z M 529.566406 482.609375 L 529.566406 524.347656 C 529.566406 524.691406 529.53125 525.03125 529.464844 525.367188 C 529.398438 525.703125 529.296875 526.027344 529.167969 526.34375 C 529.035156 526.660156 528.875 526.960938 528.683594 527.246094 C 528.496094 527.53125 528.277344 527.792969 528.035156 528.035156 C 527.792969 528.277344 527.53125 528.496094 527.246094 528.683594 C 526.960938 528.875 526.660156 529.035156 526.34375 529.167969 C 526.027344 529.296875 525.703125 529.398438 525.367188 529.464844 C 525.03125 529.53125 524.691406 529.566406 524.347656 529.566406 L 315.652344 529.566406 C 315.308594 529.566406 314.96875 529.53125 314.632812 529.464844 C 314.296875 529.398438 313.972656 529.296875 313.65625 529.167969 C 313.339844 529.035156 313.039062 528.875 312.753906 528.683594 C 312.46875 528.492188 312.207031 528.277344 311.964844 528.035156 C 311.722656 527.792969 311.507812 527.53125 311.316406 527.246094 C 311.125 526.960938 310.964844 526.660156 310.832031 526.34375 C 310.703125 526.027344 310.601562 525.699219 310.535156 525.367188 C 310.46875 525.03125 310.433594 524.691406 310.433594 524.347656 L 310.433594 482.609375 C 310.433594 482.265625 310.46875 481.925781 310.535156 481.589844 C 310.601562 481.253906 310.703125 480.929688 310.832031 480.613281 C 310.964844 480.296875 311.125 479.996094 311.316406 479.710938 C 311.507812 479.425781 311.722656 479.164062 311.964844 478.921875 C 312.207031 478.679688 312.46875 478.460938 312.753906 478.273438 C 313.039062 478.082031 313.339844 477.921875 313.65625 477.789062 C 313.972656 477.660156 314.296875 477.558594 314.632812 477.492188 C 314.96875 477.425781 315.308594 477.390625 315.652344 477.390625 L 524.347656 477.390625 C 524.691406 477.390625 525.03125 477.425781 525.367188 477.492188 C 525.703125 477.558594 526.027344 477.65625 526.34375 477.789062 C 526.660156 477.921875 526.960938 478.082031 527.246094 478.273438 C 527.53125 478.460938 527.792969 478.679688 528.035156 478.921875 C 528.277344 479.164062 528.496094 479.425781 528.683594 479.710938 C 528.875 479.996094 529.035156 480.296875 529.167969 480.613281 C 529.296875 480.929688 529.398438 481.253906 529.464844 481.589844 C 529.53125 481.925781 529.566406 482.265625 529.566406 482.609375 Z M 513.914062 466.957031 L 326.085938 466.957031 L 326.085938 456.523438 L 513.914062 456.523438 Z M 529.566406 399.128906 L 529.566406 440.871094 C 529.566406 441.210938 529.53125 441.550781 529.464844 441.886719 C 529.398438 442.222656 529.296875 442.550781 529.167969 442.867188 C 529.035156 443.183594 528.875 443.484375 528.683594 443.765625 C 528.496094 444.050781 528.277344 444.316406 528.035156 444.558594 C 527.792969 444.800781 527.53125 445.015625 527.246094 445.207031 C 526.960938 445.398438 526.660156 445.558594 526.34375 445.6875 C 526.027344 445.820312 525.703125 445.917969 525.367188 445.984375 C 525.03125 446.054688 524.691406 446.085938 524.347656 446.085938 L 315.652344 446.085938 C 315.308594 446.085938 314.96875 446.054688 314.632812 445.984375 C 314.296875 445.917969 313.972656 445.820312 313.65625 445.6875 C 313.339844 445.558594 313.039062 445.394531 312.753906 445.207031 C 312.46875 445.015625 312.207031 444.800781 311.964844 444.558594 C 311.722656 444.316406 311.507812 444.050781 311.316406 443.765625 C 311.125 443.480469 310.964844 443.183594 310.832031 442.867188 C 310.703125 442.550781 310.601562 442.222656 310.535156 441.886719 C 310.46875 441.550781 310.433594 441.210938 310.433594 440.871094 L 310.433594 399.128906 C 310.433594 398.789062 310.46875 398.449219 310.535156 398.113281 C 310.601562 397.777344 310.703125 397.449219 310.832031 397.132812 C 310.964844 396.816406 311.125 396.519531 311.316406 396.234375 C 311.507812 395.949219 311.722656 395.683594 311.964844 395.441406 C 312.207031 395.199219 312.46875 394.984375 312.753906 394.792969 C 313.039062 394.605469 313.339844 394.441406 313.65625 394.3125 C 313.972656 394.179688 314.296875 394.082031 314.632812 394.015625 C 314.96875 393.945312 315.308594 393.914062 315.652344 393.914062 L 524.347656 393.914062 C 524.691406 393.914062 525.03125 393.945312 525.367188 394.015625 C 525.703125 394.082031 526.027344 394.179688 526.34375 394.3125 C 526.660156 394.441406 526.960938 394.601562 527.246094 394.792969 C 527.53125 394.984375 527.792969 395.199219 528.035156 395.441406 C 528.277344 395.683594 528.496094 395.949219 528.683594 396.234375 C 528.875 396.515625 529.035156 396.816406 529.167969 397.132812 C 529.296875 397.449219 529.398438 397.777344 529.464844 398.113281 C 529.53125 398.449219 529.566406 398.789062 529.566406 399.128906 Z M 513.914062 383.476562 L 326.085938 383.476562 L 326.085938 373.042969 L 513.914062 373.042969 Z M 513.914062 383.476562 " fill-opacity="1" fill-rule="nonzero"/><path fill="#a5d4ad" d="M 336.523438 352.175781 C 337.550781 352.175781 338.566406 352.074219 339.574219 351.875 C 340.582031 351.671875 341.5625 351.375 342.511719 350.984375 C 343.460938 350.589844 344.363281 350.105469 345.21875 349.535156 C 346.070312 348.964844 346.863281 348.316406 347.589844 347.589844 C 348.316406 346.863281 348.964844 346.070312 349.535156 345.21875 C 350.105469 344.363281 350.589844 343.460938 350.984375 342.511719 C 351.375 341.5625 351.671875 340.582031 351.875 339.574219 C 352.074219 338.566406 352.175781 337.550781 352.175781 336.523438 C 352.175781 335.492188 352.074219 334.476562 351.875 333.46875 C 351.671875 332.460938 351.375 331.480469 350.984375 330.53125 C 350.589844 329.582031 350.105469 328.679688 349.535156 327.824219 C 348.964844 326.972656 348.316406 326.179688 347.589844 325.453125 C 346.863281 324.726562 346.070312 324.078125 345.21875 323.507812 C 344.363281 322.9375 343.460938 322.453125 342.511719 322.0625 C 341.5625 321.667969 340.582031 321.371094 339.574219 321.171875 C 338.566406 320.96875 337.550781 320.871094 336.523438 320.871094 C 335.492188 320.871094 334.476562 320.96875 333.46875 321.171875 C 332.460938 321.371094 331.480469 321.667969 330.53125 322.0625 C 329.582031 322.453125 328.679688 322.9375 327.824219 323.507812 C 326.972656 324.078125 326.179688 324.726562 325.453125 325.453125 C 324.726562 326.179688 324.078125 326.972656 323.507812 327.824219 C 322.9375 328.679688 322.453125 329.582031 322.0625 330.53125 C 321.667969 331.480469 321.371094 332.460938 321.171875 333.46875 C 320.96875 334.476562 320.871094 335.492188 320.871094 336.523438 C 320.871094 337.550781 320.972656 338.566406 321.171875 339.574219 C 321.375 340.582031 321.671875 341.558594 322.066406 342.507812 C 322.460938 343.457031 322.941406 344.359375 323.511719 345.214844 C 324.082031 346.066406 324.734375 346.859375 325.457031 347.585938 C 326.183594 348.3125 326.976562 348.960938 327.828125 349.53125 C 328.683594 350.101562 329.585938 350.585938 330.535156 350.976562 C 331.484375 351.371094 332.460938 351.667969 333.46875 351.871094 C 334.476562 352.070312 335.496094 352.171875 336.523438 352.175781 Z M 336.523438 331.304688 C 336.863281 331.304688 337.203125 331.335938 337.539062 331.40625 C 337.875 331.472656 338.203125 331.570312 338.519531 331.703125 C 338.835938 331.832031 339.136719 331.992188 339.421875 332.183594 C 339.707031 332.375 339.96875 332.589844 340.210938 332.832031 C 340.453125 333.074219 340.667969 333.339844 340.859375 333.625 C 341.050781 333.90625 341.210938 334.207031 341.34375 334.523438 C 341.472656 334.839844 341.570312 335.167969 341.640625 335.503906 C 341.707031 335.839844 341.738281 336.179688 341.738281 336.523438 C 341.738281 336.863281 341.707031 337.203125 341.640625 337.539062 C 341.570312 337.875 341.472656 338.203125 341.34375 338.519531 C 341.210938 338.835938 341.050781 339.136719 340.859375 339.421875 C 340.667969 339.707031 340.453125 339.96875 340.210938 340.210938 C 339.96875 340.453125 339.707031 340.667969 339.421875 340.859375 C 339.136719 341.050781 338.835938 341.210938 338.519531 341.34375 C 338.203125 341.472656 337.875 341.570312 337.539062 341.640625 C 337.203125 341.707031 336.863281 341.738281 336.523438 341.738281 C 336.179688 341.738281 335.839844 341.707031 335.503906 341.640625 C 335.167969 341.570312 334.839844 341.472656 334.523438 341.34375 C 334.207031 341.210938 333.90625 341.050781 333.625 340.859375 C 333.339844 340.667969 333.074219 340.453125 332.832031 340.210938 C 332.589844 339.96875 332.375 339.707031 332.183594 339.421875 C 331.992188 339.136719 331.832031 338.835938 331.703125 338.519531 C 331.570312 338.203125 331.472656 337.875 331.40625 337.539062 C 331.335938 337.203125 331.304688 336.863281 331.304688 336.523438 C 331.304688 336.179688 331.339844 335.839844 331.40625 335.503906 C 331.472656 335.167969 331.570312 334.84375 331.703125 334.527344 C 331.835938 334.210938 331.996094 333.910156 332.183594 333.625 C 332.375 333.339844 332.59375 333.078125 332.835938 332.835938 C 333.074219 332.59375 333.339844 332.375 333.625 332.183594 C 333.910156 331.996094 334.210938 331.835938 334.527344 331.703125 C 334.84375 331.570312 335.167969 331.472656 335.503906 331.40625 C 335.839844 331.339844 336.179688 331.304688 336.523438 331.304688 Z M 336.523438 331.304688 " fill-opacity="1" fill-rule="nonzero"/><path fill="#a5d4ad" d="M 383.476562 352.175781 C 384.507812 352.175781 385.523438 352.074219 386.53125 351.875 C 387.539062 351.671875 388.519531 351.375 389.46875 350.984375 C 390.417969 350.589844 391.320312 350.105469 392.175781 349.535156 C 393.027344 348.964844 393.820312 348.316406 394.546875 347.589844 C 395.273438 346.863281 395.921875 346.070312 396.492188 345.21875 C 397.0625 344.363281 397.546875 343.460938 397.9375 342.511719 C 398.332031 341.5625 398.628906 340.582031 398.828125 339.574219 C 399.03125 338.566406 399.128906 337.550781 399.128906 336.523438 C 399.128906 335.492188 399.03125 334.476562 398.828125 333.46875 C 398.628906 332.460938 398.332031 331.480469 397.9375 330.53125 C 397.546875 329.582031 397.0625 328.679688 396.492188 327.824219 C 395.921875 326.972656 395.273438 326.179688 394.546875 325.453125 C 393.820312 324.726562 393.027344 324.078125 392.175781 323.507812 C 391.320312 322.9375 390.417969 322.453125 389.46875 322.0625 C 388.519531 321.667969 387.539062 321.371094 386.53125 321.171875 C 385.523438 320.96875 384.507812 320.871094 383.476562 320.871094 C 382.449219 320.871094 381.433594 320.96875 380.425781 321.171875 C 379.417969 321.371094 378.4375 321.667969 377.488281 322.0625 C 376.539062 322.453125 375.636719 322.9375 374.78125 323.507812 C 373.929688 324.078125 373.136719 324.726562 372.410156 325.453125 C 371.683594 326.179688 371.035156 326.972656 370.464844 327.824219 C 369.894531 328.679688 369.410156 329.582031 369.015625 330.53125 C 368.625 331.480469 368.328125 332.460938 368.125 333.46875 C 367.925781 334.476562 367.824219 335.492188 367.824219 336.523438 C 367.828125 337.550781 367.929688 338.566406 368.128906 339.574219 C 368.332031 340.582031 368.628906 341.558594 369.023438 342.507812 C 369.414062 343.457031 369.898438 344.359375 370.46875 345.214844 C 371.039062 346.066406 371.6875 346.859375 372.414062 347.585938 C 373.140625 348.3125 373.933594 348.960938 374.785156 349.53125 C 375.640625 350.101562 376.542969 350.585938 377.492188 350.976562 C 378.441406 351.371094 379.417969 351.667969 380.425781 351.871094 C 381.433594 352.070312 382.449219 352.171875 383.476562 352.175781 Z M 383.476562 331.304688 C 383.820312 331.304688 384.160156 331.335938 384.496094 331.40625 C 384.832031 331.472656 385.160156 331.570312 385.476562 331.703125 C 385.792969 331.832031 386.09375 331.992188 386.375 332.183594 C 386.660156 332.375 386.925781 332.589844 387.167969 332.832031 C 387.410156 333.074219 387.625 333.339844 387.816406 333.625 C 388.007812 333.90625 388.167969 334.207031 388.296875 334.523438 C 388.429688 334.839844 388.527344 335.167969 388.59375 335.503906 C 388.664062 335.839844 388.695312 336.179688 388.695312 336.523438 C 388.695312 336.863281 388.664062 337.203125 388.59375 337.539062 C 388.527344 337.875 388.429688 338.203125 388.296875 338.519531 C 388.167969 338.835938 388.007812 339.136719 387.816406 339.421875 C 387.625 339.707031 387.410156 339.96875 387.167969 340.210938 C 386.925781 340.453125 386.660156 340.667969 386.375 340.859375 C 386.09375 341.050781 385.792969 341.210938 385.476562 341.34375 C 385.160156 341.472656 384.832031 341.570312 384.496094 341.640625 C 384.160156 341.707031 383.820312 341.738281 383.476562 341.738281 C 383.136719 341.738281 382.796875 341.707031 382.460938 341.640625 C 382.125 341.570312 381.796875 341.472656 381.480469 341.34375 C 381.164062 341.210938 380.863281 341.050781 380.578125 340.859375 C 380.292969 340.667969 380.03125 340.453125 379.789062 340.210938 C 379.546875 339.96875 379.332031 339.707031 379.140625 339.421875 C 378.949219 339.136719 378.789062 338.835938 378.65625 338.519531 C 378.527344 338.203125 378.429688 337.875 378.359375 337.539062 C 378.292969 337.203125 378.261719 336.863281 378.261719 336.523438 C 378.261719 336.179688 378.292969 335.839844 378.363281 335.503906 C 378.429688 335.167969 378.527344 334.84375 378.660156 334.527344 C 378.789062 334.210938 378.953125 333.910156 379.140625 333.625 C 379.332031 333.339844 379.546875 333.074219 379.789062 332.832031 C 380.03125 332.589844 380.296875 332.375 380.582031 332.183594 C 380.867188 331.996094 381.167969 331.835938 381.480469 331.703125 C 381.796875 331.570312 382.125 331.472656 382.460938 331.40625 C 382.796875 331.339844 383.136719 331.304688 383.476562 331.304688 Z M 383.476562 331.304688 " fill-opacity="1" fill-rule="nonzero"/><path fill="#a5d4ad" d="M 440.871094 341.738281 L 513.914062 341.738281 C 514.253906 341.738281 514.59375 341.707031 514.929688 341.640625 C 515.265625 341.570312 515.59375 341.472656 515.910156 341.34375 C 516.226562 341.210938 516.527344 341.050781 516.8125 340.859375 C 517.097656 340.667969 517.359375 340.453125 517.601562 340.210938 C 517.84375 339.96875 518.0625 339.707031 518.25 339.421875 C 518.441406 339.136719 518.601562 338.835938 518.734375 338.519531 C 518.863281 338.203125 518.964844 337.875 519.03125 337.539062 C 519.097656 337.203125 519.128906 336.863281 519.128906 336.523438 C 519.128906 336.179688 519.097656 335.839844 519.03125 335.503906 C 518.964844 335.167969 518.863281 334.839844 518.734375 334.523438 C 518.601562 334.207031 518.441406 333.90625 518.25 333.625 C 518.0625 333.339844 517.84375 333.074219 517.601562 332.832031 C 517.359375 332.589844 517.097656 332.375 516.8125 332.183594 C 516.527344 331.992188 516.226562 331.832031 515.910156 331.703125 C 515.59375 331.570312 515.265625 331.472656 514.929688 331.40625 C 514.59375 331.335938 514.253906 331.304688 513.914062 331.304688 L 440.871094 331.304688 C 440.527344 331.304688 440.1875 331.335938 439.851562 331.40625 C 439.515625 331.472656 439.1875 331.570312 438.871094 331.703125 C 438.554688 331.832031 438.253906 331.992188 437.972656 332.183594 C 437.6875 332.375 437.421875 332.589844 437.179688 332.832031 C 436.9375 333.074219 436.722656 333.339844 436.53125 333.625 C 436.339844 333.90625 436.179688 334.207031 436.050781 334.523438 C 435.917969 334.839844 435.820312 335.167969 435.753906 335.503906 C 435.6875 335.839844 435.652344 336.179688 435.652344 336.523438 C 435.652344 336.863281 435.6875 337.203125 435.753906 337.539062 C 435.820312 337.875 435.917969 338.203125 436.050781 338.519531 C 436.179688 338.835938 436.339844 339.136719 436.53125 339.421875 C 436.722656 339.707031 436.9375 339.96875 437.179688 340.210938 C 437.421875 340.453125 437.6875 340.667969 437.972656 340.859375 C 438.253906 341.050781 438.554688 341.210938 438.871094 341.34375 C 439.1875 341.472656 439.515625 341.570312 439.851562 341.640625 C 440.1875 341.707031 440.527344 341.738281 440.871094 341.738281 Z M 440.871094 341.738281 " fill-opacity="1" fill-rule="nonzero"/><path fill="#a5d4ad" d="M 336.523438 404.347656 C 335.492188 404.347656 334.476562 404.449219 333.46875 404.648438 C 332.460938 404.847656 331.480469 405.144531 330.53125 405.539062 C 329.582031 405.933594 328.679688 406.414062 327.824219 406.984375 C 326.972656 407.558594 326.179688 408.207031 325.453125 408.933594 C 324.726562 409.660156 324.078125 410.449219 323.507812 411.304688 C 322.9375 412.160156 322.453125 413.0625 322.0625 414.011719 C 321.667969 414.960938 321.371094 415.9375 321.171875 416.945312 C 320.96875 417.953125 320.871094 418.972656 320.871094 420 C 320.871094 421.027344 320.96875 422.046875 321.171875 423.054688 C 321.371094 424.0625 321.667969 425.039062 322.0625 425.988281 C 322.453125 426.9375 322.9375 427.839844 323.507812 428.695312 C 324.078125 429.550781 324.726562 430.339844 325.453125 431.066406 C 326.179688 431.792969 326.972656 432.441406 327.824219 433.015625 C 328.679688 433.585938 329.582031 434.066406 330.53125 434.460938 C 331.480469 434.855469 332.460938 435.152344 333.46875 435.351562 C 334.476562 435.550781 335.492188 435.652344 336.523438 435.652344 C 337.550781 435.652344 338.566406 435.550781 339.574219 435.351562 C 340.582031 435.152344 341.5625 434.855469 342.511719 434.460938 C 343.460938 434.066406 344.363281 433.585938 345.21875 433.015625 C 346.070312 432.441406 346.863281 431.792969 347.589844 431.066406 C 348.316406 430.339844 348.964844 429.550781 349.535156 428.695312 C 350.105469 427.839844 350.589844 426.9375 350.984375 425.988281 C 351.375 425.039062 351.671875 424.0625 351.875 423.054688 C 352.074219 422.046875 352.175781 421.027344 352.175781 420 C 352.171875 418.972656 352.070312 417.957031 351.871094 416.949219 C 351.667969 415.941406 351.371094 414.960938 350.976562 414.011719 C 350.585938 413.0625 350.101562 412.164062 349.53125 411.308594 C 348.960938 410.453125 348.3125 409.664062 347.585938 408.9375 C 346.859375 408.210938 346.066406 407.5625 345.214844 406.992188 C 344.359375 406.417969 343.457031 405.9375 342.507812 405.542969 C 341.558594 405.148438 340.582031 404.851562 339.574219 404.652344 C 338.566406 404.449219 337.550781 404.347656 336.523438 404.347656 Z M 336.523438 425.21875 C 336.179688 425.21875 335.839844 425.183594 335.503906 425.117188 C 335.167969 425.050781 334.839844 424.953125 334.523438 424.820312 C 334.207031 424.6875 333.90625 424.527344 333.625 424.339844 C 333.339844 424.148438 333.074219 423.929688 332.832031 423.6875 C 332.589844 423.445312 332.375 423.183594 332.183594 422.898438 C 331.992188 422.613281 331.832031 422.3125 331.703125 421.996094 C 331.570312 421.679688 331.472656 421.355469 331.40625 421.019531 C 331.335938 420.683594 331.304688 420.34375 331.304688 420 C 331.304688 419.65625 331.335938 419.316406 331.40625 418.980469 C 331.472656 418.644531 331.570312 418.320312 331.703125 418.003906 C 331.832031 417.6875 331.992188 417.386719 332.183594 417.101562 C 332.375 416.816406 332.589844 416.554688 332.832031 416.3125 C 333.074219 416.070312 333.339844 415.851562 333.625 415.660156 C 333.90625 415.472656 334.207031 415.3125 334.523438 415.179688 C 334.839844 415.046875 335.167969 414.949219 335.503906 414.882812 C 335.839844 414.816406 336.179688 414.78125 336.523438 414.78125 C 336.863281 414.78125 337.203125 414.816406 337.539062 414.882812 C 337.875 414.949219 338.203125 415.046875 338.519531 415.179688 C 338.835938 415.3125 339.136719 415.472656 339.421875 415.660156 C 339.707031 415.851562 339.96875 416.070312 340.210938 416.3125 C 340.453125 416.554688 340.667969 416.816406 340.859375 417.101562 C 341.050781 417.386719 341.210938 417.6875 341.34375 418.003906 C 341.472656 418.320312 341.570312 418.644531 341.640625 418.980469 C 341.707031 419.316406 341.738281 419.65625 341.738281 420 C 341.738281 420.34375 341.703125 420.683594 341.636719 421.015625 C 341.570312 421.351562 341.472656 421.679688 341.339844 421.996094 C 341.210938 422.3125 341.046875 422.613281 340.859375 422.898438 C 340.667969 423.183594 340.453125 423.445312 340.210938 423.6875 C 339.96875 423.929688 339.703125 424.144531 339.417969 424.335938 C 339.132812 424.527344 338.832031 424.6875 338.515625 424.820312 C 338.203125 424.949219 337.875 425.050781 337.539062 425.117188 C 337.203125 425.183594 336.863281 425.21875 336.523438 425.21875 Z M 336.523438 425.21875 " fill-opacity="1" fill-rule="nonzero"/><path fill="#a5d4ad" d="M 383.476562 404.347656 C 382.449219 404.347656 381.433594 404.449219 380.425781 404.648438 C 379.417969 404.847656 378.4375 405.144531 377.488281 405.539062 C 376.539062 405.933594 375.636719 406.414062 374.78125 406.984375 C 373.929688 407.558594 373.136719 408.207031 372.410156 408.933594 C 371.683594 409.660156 371.035156 410.449219 370.464844 411.304688 C 369.894531 412.160156 369.410156 413.0625 369.015625 414.011719 C 368.625 414.960938 368.328125 415.9375 368.125 416.945312 C 367.925781 417.953125 367.824219 418.972656 367.824219 420 C 367.824219 421.027344 367.925781 422.046875 368.125 423.054688 C 368.328125 424.0625 368.625 425.039062 369.015625 425.988281 C 369.410156 426.9375 369.894531 427.839844 370.464844 428.695312 C 371.035156 429.550781 371.683594 430.339844 372.410156 431.066406 C 373.136719 431.792969 373.929688 432.441406 374.78125 433.015625 C 375.636719 433.585938 376.539062 434.066406 377.488281 434.460938 C 378.4375 434.855469 379.417969 435.152344 380.425781 435.351562 C 381.433594 435.550781 382.449219 435.652344 383.476562 435.652344 C 384.507812 435.652344 385.523438 435.550781 386.53125 435.351562 C 387.539062 435.152344 388.519531 434.855469 389.46875 434.460938 C 390.417969 434.066406 391.320312 433.585938 392.175781 433.015625 C 393.027344 432.441406 393.820312 431.792969 394.546875 431.066406 C 395.273438 430.339844 395.921875 429.550781 396.492188 428.695312 C 397.0625 427.839844 397.546875 426.9375 397.9375 425.988281 C 398.332031 425.039062 398.628906 424.0625 398.828125 423.054688 C 399.03125 422.046875 399.128906 421.027344 399.128906 420 C 399.128906 418.972656 399.027344 417.957031 398.828125 416.949219 C 398.625 415.941406 398.328125 414.960938 397.933594 414.011719 C 397.539062 413.0625 397.058594 412.164062 396.488281 411.308594 C 395.917969 410.453125 395.265625 409.664062 394.539062 408.9375 C 393.816406 408.210938 393.023438 407.5625 392.171875 406.992188 C 391.316406 406.417969 390.414062 405.9375 389.464844 405.542969 C 388.515625 405.148438 387.539062 404.851562 386.53125 404.652344 C 385.523438 404.449219 384.503906 404.347656 383.476562 404.347656 Z M 383.476562 425.21875 C 383.136719 425.21875 382.796875 425.183594 382.460938 425.117188 C 382.125 425.050781 381.796875 424.953125 381.480469 424.820312 C 381.164062 424.6875 380.863281 424.527344 380.578125 424.339844 C 380.292969 424.148438 380.03125 423.929688 379.789062 423.6875 C 379.546875 423.445312 379.332031 423.183594 379.140625 422.898438 C 378.949219 422.613281 378.789062 422.3125 378.65625 421.996094 C 378.527344 421.679688 378.429688 421.355469 378.359375 421.019531 C 378.292969 420.683594 378.261719 420.34375 378.261719 420 C 378.261719 419.65625 378.292969 419.316406 378.359375 418.980469 C 378.429688 418.644531 378.527344 418.320312 378.65625 418.003906 C 378.789062 417.6875 378.949219 417.386719 379.140625 417.101562 C 379.332031 416.816406 379.546875 416.554688 379.789062 416.3125 C 380.03125 416.070312 380.292969 415.851562 380.578125 415.660156 C 380.863281 415.472656 381.164062 415.3125 381.480469 415.179688 C 381.796875 415.046875 382.125 414.949219 382.460938 414.882812 C 382.796875 414.816406 383.136719 414.78125 383.476562 414.78125 C 383.820312 414.78125 384.160156 414.816406 384.496094 414.882812 C 384.832031 414.949219 385.160156 415.046875 385.476562 415.179688 C 385.792969 415.3125 386.09375 415.472656 386.375 415.660156 C 386.660156 415.851562 386.925781 416.070312 387.167969 416.3125 C 387.410156 416.554688 387.625 416.816406 387.816406 417.101562 C 388.007812 417.386719 388.167969 417.6875 388.296875 418.003906 C 388.429688 418.320312 388.527344 418.644531 388.59375 418.980469 C 388.664062 419.316406 388.695312 419.65625 388.695312 420 C 388.695312 420.34375 388.660156 420.683594 388.59375 421.015625 C 388.527344 421.351562 388.429688 421.679688 388.296875 421.996094 C 388.164062 422.3125 388.003906 422.613281 387.816406 422.898438 C 387.625 423.183594 387.410156 423.445312 387.167969 423.6875 C 386.925781 423.929688 386.660156 424.144531 386.375 424.335938 C 386.089844 424.527344 385.789062 424.6875 385.472656 424.820312 C 385.15625 424.949219 384.832031 425.050781 384.496094 425.117188 C 384.160156 425.183594 383.820312 425.21875 383.476562 425.21875 Z M 383.476562 425.21875 " fill-opacity="1" fill-rule="nonzero"/><path fill="#a5d4ad" d="M 513.914062 414.78125 L 440.871094 414.78125 C 440.527344 414.78125 440.1875 414.816406 439.851562 414.882812 C 439.515625 414.949219 439.1875 415.046875 438.871094 415.179688 C 438.554688 415.3125 438.253906 415.472656 437.972656 415.660156 C 437.6875 415.851562 437.421875 416.070312 437.179688 416.3125 C 436.9375 416.554688 436.722656 416.816406 436.53125 417.101562 C 436.339844 417.386719 436.179688 417.6875 436.050781 418.003906 C 435.917969 418.320312 435.820312 418.644531 435.753906 418.980469 C 435.6875 419.316406 435.652344 419.65625 435.652344 420 C 435.652344 420.34375 435.6875 420.683594 435.753906 421.019531 C 435.820312 421.355469 435.917969 421.679688 436.050781 421.996094 C 436.179688 422.3125 436.339844 422.613281 436.53125 422.898438 C 436.722656 423.183594 436.9375 423.445312 437.179688 423.6875 C 437.421875 423.929688 437.6875 424.148438 437.972656 424.339844 C 438.253906 424.527344 438.554688 424.6875 438.871094 424.820312 C 439.1875 424.953125 439.515625 425.050781 439.851562 425.117188 C 440.1875 425.183594 440.527344 425.21875 440.871094 425.21875 L 513.914062 425.21875 C 514.253906 425.21875 514.59375 425.183594 514.929688 425.117188 C 515.265625 425.050781 515.59375 424.953125 515.910156 424.820312 C 516.226562 424.6875 516.527344 424.527344 516.8125 424.339844 C 517.097656 424.148438 517.359375 423.929688 517.601562 423.6875 C 517.84375 423.445312 518.0625 423.183594 518.25 422.898438 C 518.441406 422.613281 518.601562 422.3125 518.734375 421.996094 C 518.863281 421.679688 518.964844 421.355469 519.03125 421.019531 C 519.097656 420.683594 519.128906 420.34375 519.128906 420 C 519.128906 419.65625 519.097656 419.316406 519.03125 418.980469 C 518.964844 418.644531 518.863281 418.320312 518.734375 418.003906 C 518.601562 417.6875 518.441406 417.386719 518.25 417.101562 C 518.0625 416.816406 517.84375 416.554688 517.601562 416.3125 C 517.359375 416.070312 517.097656 415.851562 516.8125 415.660156 C 516.527344 415.472656 516.226562 415.3125 515.910156 415.179688 C 515.59375 415.046875 515.265625 414.949219 514.929688 414.882812 C 514.59375 414.816406 514.253906 414.78125 513.914062 414.78125 Z M 513.914062 414.78125 " fill-opacity="1" fill-rule="nonzero"/><path fill="#a5d4ad" d="M 336.523438 487.824219 C 335.492188 487.824219 334.476562 487.925781 333.46875 488.125 C 332.460938 488.328125 331.480469 488.625 330.53125 489.015625 C 329.582031 489.410156 328.679688 489.894531 327.824219 490.464844 C 326.972656 491.035156 326.179688 491.683594 325.453125 492.410156 C 324.726562 493.136719 324.078125 493.929688 323.507812 494.78125 C 322.9375 495.636719 322.453125 496.539062 322.0625 497.488281 C 321.667969 498.4375 321.371094 499.417969 321.171875 500.425781 C 320.96875 501.433594 320.871094 502.449219 320.871094 503.476562 C 320.871094 504.507812 320.96875 505.523438 321.171875 506.53125 C 321.371094 507.539062 321.667969 508.519531 322.0625 509.46875 C 322.453125 510.417969 322.9375 511.320312 323.507812 512.175781 C 324.078125 513.027344 324.726562 513.820312 325.453125 514.546875 C 326.179688 515.273438 326.972656 515.921875 327.824219 516.492188 C 328.679688 517.0625 329.582031 517.546875 330.53125 517.9375 C 331.480469 518.332031 332.460938 518.628906 333.46875 518.828125 C 334.476562 519.03125 335.492188 519.128906 336.523438 519.128906 C 337.550781 519.128906 338.566406 519.03125 339.574219 518.828125 C 340.582031 518.628906 341.5625 518.332031 342.511719 517.9375 C 343.460938 517.546875 344.363281 517.0625 345.21875 516.492188 C 346.070312 515.921875 346.863281 515.273438 347.589844 514.546875 C 348.316406 513.820312 348.964844 513.027344 349.535156 512.175781 C 350.105469 511.320312 350.589844 510.417969 350.984375 509.46875 C 351.375 508.519531 351.671875 507.539062 351.875 506.53125 C 352.074219 505.523438 352.175781 504.507812 352.175781 503.476562 C 352.171875 502.449219 352.070312 501.433594 351.871094 500.425781 C 351.667969 499.417969 351.371094 498.441406 350.976562 497.492188 C 350.585938 496.542969 350.101562 495.640625 349.53125 494.785156 C 348.960938 493.933594 348.3125 493.140625 347.585938 492.414062 C 346.859375 491.6875 346.066406 491.039062 345.214844 490.46875 C 344.359375 489.898438 343.457031 489.414062 342.507812 489.023438 C 341.558594 488.628906 340.582031 488.332031 339.574219 488.128906 C 338.566406 487.929688 337.550781 487.828125 336.523438 487.824219 Z M 336.523438 508.695312 C 336.179688 508.695312 335.839844 508.664062 335.503906 508.59375 C 335.167969 508.527344 334.839844 508.429688 334.523438 508.296875 C 334.207031 508.167969 333.90625 508.007812 333.625 507.816406 C 333.339844 507.625 333.074219 507.410156 332.832031 507.167969 C 332.589844 506.925781 332.375 506.660156 332.183594 506.375 C 331.992188 506.09375 331.832031 505.792969 331.703125 505.476562 C 331.570312 505.160156 331.472656 504.832031 331.40625 504.496094 C 331.335938 504.160156 331.304688 503.820312 331.304688 503.476562 C 331.304688 503.136719 331.335938 502.796875 331.40625 502.460938 C 331.472656 502.125 331.570312 501.796875 331.703125 501.480469 C 331.832031 501.164062 331.992188 500.863281 332.183594 500.578125 C 332.375 500.292969 332.589844 500.03125 332.832031 499.789062 C 333.074219 499.546875 333.339844 499.332031 333.625 499.140625 C 333.90625 498.949219 334.207031 498.789062 334.523438 498.65625 C 334.839844 498.527344 335.167969 498.429688 335.503906 498.359375 C 335.839844 498.292969 336.179688 498.261719 336.523438 498.261719 C 336.863281 498.261719 337.203125 498.292969 337.539062 498.359375 C 337.875 498.429688 338.203125 498.527344 338.519531 498.65625 C 338.835938 498.789062 339.136719 498.949219 339.421875 499.140625 C 339.707031 499.332031 339.96875 499.546875 340.210938 499.789062 C 340.453125 500.03125 340.667969 500.292969 340.859375 500.578125 C 341.050781 500.863281 341.210938 501.164062 341.34375 501.480469 C 341.472656 501.796875 341.570312 502.125 341.640625 502.460938 C 341.707031 502.796875 341.738281 503.136719 341.738281 503.476562 C 341.738281 503.820312 341.703125 504.160156 341.636719 504.496094 C 341.570312 504.832031 341.472656 505.15625 341.339844 505.472656 C 341.210938 505.789062 341.046875 506.089844 340.859375 506.375 C 340.667969 506.660156 340.453125 506.925781 340.210938 507.164062 C 339.96875 507.40625 339.703125 507.625 339.417969 507.816406 C 339.132812 508.003906 338.832031 508.164062 338.515625 508.296875 C 338.203125 508.429688 337.875 508.527344 337.539062 508.59375 C 337.203125 508.660156 336.863281 508.695312 336.523438 508.695312 Z M 336.523438 508.695312 " fill-opacity="1" fill-rule="nonzero"/><path fill="#a5d4ad" d="M 383.476562 487.824219 C 382.449219 487.824219 381.433594 487.925781 380.425781 488.125 C 379.417969 488.328125 378.4375 488.625 377.488281 489.015625 C 376.539062 489.410156 375.636719 489.894531 374.78125 490.464844 C 373.929688 491.035156 373.136719 491.683594 372.410156 492.410156 C 371.683594 493.136719 371.035156 493.929688 370.464844 494.78125 C 369.894531 495.636719 369.410156 496.539062 369.015625 497.488281 C 368.625 498.4375 368.328125 499.417969 368.125 500.425781 C 367.925781 501.433594 367.824219 502.449219 367.824219 503.476562 C 367.824219 504.507812 367.925781 505.523438 368.125 506.53125 C 368.328125 507.539062 368.625 508.519531 369.015625 509.46875 C 369.410156 510.417969 369.894531 511.320312 370.464844 512.175781 C 371.035156 513.027344 371.683594 513.820312 372.410156 514.546875 C 373.136719 515.273438 373.929688 515.921875 374.78125 516.492188 C 375.636719 517.0625 376.539062 517.546875 377.488281 517.9375 C 378.4375 518.332031 379.417969 518.628906 380.425781 518.828125 C 381.433594 519.03125 382.449219 519.128906 383.476562 519.128906 C 384.507812 519.128906 385.523438 519.03125 386.53125 518.828125 C 387.539062 518.628906 388.519531 518.332031 389.46875 517.9375 C 390.417969 517.546875 391.320312 517.0625 392.175781 516.492188 C 393.027344 515.921875 393.820312 515.273438 394.546875 514.546875 C 395.273438 513.820312 395.921875 513.027344 396.492188 512.175781 C 397.0625 511.320312 397.546875 510.417969 397.9375 509.46875 C 398.332031 508.519531 398.628906 507.539062 398.828125 506.53125 C 399.03125 505.523438 399.128906 504.507812 399.128906 503.476562 C 399.128906 502.449219 399.027344 501.433594 398.828125 500.425781 C 398.625 499.417969 398.328125 498.441406 397.933594 497.492188 C 397.539062 496.542969 397.058594 495.640625 396.488281 494.785156 C 395.917969 493.933594 395.265625 493.140625 394.539062 492.414062 C 393.816406 491.6875 393.023438 491.039062 392.171875 490.46875 C 391.316406 489.898438 390.414062 489.414062 389.464844 489.023438 C 388.515625 488.628906 387.539062 488.332031 386.53125 488.128906 C 385.523438 487.929688 384.503906 487.828125 383.476562 487.824219 Z M 383.476562 508.695312 C 383.136719 508.695312 382.796875 508.664062 382.460938 508.59375 C 382.125 508.527344 381.796875 508.429688 381.480469 508.296875 C 381.164062 508.167969 380.863281 508.007812 380.578125 507.816406 C 380.292969 507.625 380.03125 507.410156 379.789062 507.167969 C 379.546875 506.925781 379.332031 506.660156 379.140625 506.375 C 378.949219 506.09375 378.789062 505.792969 378.65625 505.476562 C 378.527344 505.160156 378.429688 504.832031 378.359375 504.496094 C 378.292969 504.160156 378.261719 503.820312 378.261719 503.476562 C 378.261719 503.136719 378.292969 502.796875 378.359375 502.460938 C 378.429688 502.125 378.527344 501.796875 378.65625 501.480469 C 378.789062 501.164062 378.949219 500.863281 379.140625 500.578125 C 379.332031 500.292969 379.546875 500.03125 379.789062 499.789062 C 380.03125 499.546875 380.292969 499.332031 380.578125 499.140625 C 380.863281 498.949219 381.164062 498.789062 381.480469 498.65625 C 381.796875 498.527344 382.125 498.429688 382.460938 498.359375 C 382.796875 498.292969 383.136719 498.261719 383.476562 498.261719 C 383.820312 498.261719 384.160156 498.292969 384.496094 498.359375 C 384.832031 498.429688 385.160156 498.527344 385.476562 498.65625 C 385.792969 498.789062 386.09375 498.949219 386.375 499.140625 C 386.660156 499.332031 386.925781 499.546875 387.167969 499.789062 C 387.410156 500.03125 387.625 500.292969 387.816406 500.578125 C 388.007812 500.863281 388.167969 501.164062 388.296875 501.480469 C 388.429688 501.796875 388.527344 502.125 388.59375 502.460938 C 388.664062 502.796875 388.695312 503.136719 388.695312 503.476562 C 388.695312 503.820312 388.660156 504.160156 388.59375 504.496094 C 388.527344 504.832031 388.429688 505.15625 388.296875 505.472656 C 388.164062 505.789062 388.003906 506.089844 387.816406 506.375 C 387.625 506.660156 387.410156 506.925781 387.167969 507.167969 C 386.925781 507.410156 386.660156 507.625 386.375 507.816406 C 386.089844 508.003906 385.789062 508.164062 385.472656 508.296875 C 385.15625 508.429688 384.832031 508.527344 384.496094 508.59375 C 384.160156 508.660156 383.820312 508.695312 383.476562 508.695312 Z M 383.476562 508.695312 " fill-opacity="1" fill-rule="nonzero"/><path fill="#a5d4ad" d="M 513.914062 498.261719 L 440.871094 498.261719 C 440.527344 498.261719 440.1875 498.292969 439.851562 498.359375 C 439.515625 498.429688 439.1875 498.527344 438.871094 498.65625 C 438.554688 498.789062 438.253906 498.949219 437.972656 499.140625 C 437.6875 499.332031 437.421875 499.546875 437.179688 499.789062 C 436.9375 500.03125 436.722656 500.292969 436.53125 500.578125 C 436.339844 500.863281 436.179688 501.164062 436.050781 501.480469 C 435.917969 501.796875 435.820312 502.125 435.753906 502.460938 C 435.6875 502.796875 435.652344 503.136719 435.652344 503.476562 C 435.652344 503.820312 435.6875 504.160156 435.753906 504.496094 C 435.820312 504.832031 435.917969 505.160156 436.050781 505.476562 C 436.179688 505.792969 436.339844 506.09375 436.53125 506.375 C 436.722656 506.660156 436.9375 506.925781 437.179688 507.167969 C 437.421875 507.410156 437.6875 507.625 437.972656 507.816406 C 438.253906 508.007812 438.554688 508.167969 438.871094 508.296875 C 439.1875 508.429688 439.515625 508.527344 439.851562 508.59375 C 440.1875 508.664062 440.527344 508.695312 440.871094 508.695312 L 513.914062 508.695312 C 514.253906 508.695312 514.59375 508.664062 514.929688 508.59375 C 515.265625 508.527344 515.59375 508.429688 515.910156 508.296875 C 516.226562 508.167969 516.527344 508.007812 516.8125 507.816406 C 517.097656 507.625 517.359375 507.410156 517.601562 507.167969 C 517.84375 506.925781 518.0625 506.660156 518.25 506.375 C 518.441406 506.09375 518.601562 505.792969 518.734375 505.476562 C 518.863281 505.160156 518.964844 504.832031 519.03125 504.496094 C 519.097656 504.160156 519.128906 503.820312 519.128906 503.476562 C 519.128906 503.136719 519.097656 502.796875 519.03125 502.460938 C 518.964844 502.125 518.863281 501.796875 518.734375 501.480469 C 518.601562 501.164062 518.441406 500.863281 518.25 500.578125 C 518.0625 500.292969 517.84375 500.03125 517.601562 499.789062 C 517.359375 499.546875 517.097656 499.332031 516.8125 499.140625 C 516.527344 498.949219 516.226562 498.789062 515.910156 498.65625 C 515.59375 498.527344 515.265625 498.429688 514.929688 498.359375 C 514.59375 498.292969 514.253906 498.261719 513.914062 498.261719 Z M 513.914062 498.261719 " fill-opacity="1" fill-rule="nonzero"/><path fill="#a5d4ad" d="M 163.847656 99.613281 C 163.269531 102.714844 163.640625 106.183594 163.683594 109.367188 C 163.722656 112.714844 163.847656 115.980469 164.136719 119.285156 C 164.425781 122.46875 169.851562 122.921875 170.511719 119.742188 C 171.300781 116.144531 171.671875 112.796875 171.589844 109.160156 C 171.464844 105.605469 171.339844 101.761719 169.972656 98.457031 C 169.4375 97.175781 167.78125 96.472656 166.496094 96.722656 C 164.964844 97.011719 164.136719 98.207031 163.847656 99.613281 Z M 163.847656 99.613281 " fill-opacity="1" fill-rule="nonzero"/><path fill="#a5d4ad" d="M 208.84375 98.539062 C 207.601562 101.019531 208.101562 104.699219 208.222656 107.425781 C 208.347656 110.605469 208.722656 113.542969 209.550781 116.601562 C 210.667969 120.773438 215.964844 120.152344 216.792969 116.1875 C 217.496094 112.878906 217.539062 109.863281 217.164062 106.515625 C 216.835938 103.5 216.542969 99.902344 214.597656 97.421875 C 212.859375 95.234375 209.878906 96.433594 208.84375 98.539062 Z M 208.84375 98.539062 " fill-opacity="1" fill-rule="nonzero"/><g clip-path="url(#1a13309db8)"><path fill="#a5d4ad" d="M 132.636719 150.984375 C 132.511719 157.226562 135.65625 163.09375 139.132812 168.09375 C 142.570312 173.011719 146.957031 177.3125 151.882812 180.742188 C 161.28125 187.273438 172.789062 190.992188 184.214844 191.488281 C 195.804688 191.984375 207.6875 189.585938 217.871094 183.964844 C 228.011719 178.386719 236.582031 170.160156 242.832031 160.410156 C 246.265625 155.035156 249.039062 149.167969 250.984375 143.089844 C 252.019531 139.949219 252.847656 136.6875 253.386719 133.421875 C 253.882812 130.195312 254.546875 126.519531 253.511719 123.378906 C 252.519531 120.402344 248.875 119.988281 247.46875 122.921875 C 246.351562 125.277344 246.226562 127.882812 245.6875 130.445312 C 245.148438 132.964844 244.570312 135.488281 243.824219 137.96875 C 242.417969 142.71875 240.511719 147.347656 238.070312 151.648438 C 233.144531 160.367188 226.355469 168.179688 217.910156 173.714844 C 201.1875 184.625 178.585938 186.113281 160.703125 176.941406 C 155.484375 174.253906 150.640625 170.65625 146.667969 166.402344 C 142.15625 161.566406 139.589844 155.945312 136.484375 150.199219 C 135.574219 148.589844 132.675781 148.878906 132.636719 150.984375 Z M 132.636719 150.984375 " fill-opacity="1" fill-rule="nonzero"/></g></svg>