<svg xmlns="http://www.w3.org/2000/svg" xmlns:xlink="http://www.w3.org/1999/xlink" width="800" zoomAndPan="magnify" viewBox="0 0 600 599.999999" height="800" preserveAspectRatio="xMidYMid meet" version="1.0"><defs><clipPath id="52af7f38b9"><path d="M 60 75.699219 L 540 75.699219 L 540 524.066406 L 60 524.066406 Z M 60 75.699219 " clip-rule="nonzero"/></clipPath></defs><g clip-path="url(#52af7f38b9)"><path fill="#a5d4ad" d="M 411.558594 106.703125 L 425.058594 75.695312 L 287.347656 107.484375 L 361.082031 222.703125 L 376.042969 188.320312 C 420.5 208.828125 451.363281 253.753906 451.363281 305.910156 C 451.363281 312.53125 450.859375 319.027344 449.902344 325.378906 L 539.234375 323.933594 C 539.734375 317.914062 540 311.835938 540 305.6875 C 540 217.179688 487.292969 140.996094 411.558594 106.703125 Z M 192.933594 318.902344 C 192.503906 314.628906 192.273438 310.292969 192.273438 305.910156 C 192.273438 252.121094 225.085938 206.007812 271.789062 186.441406 L 229.308594 107.683594 C 154.742188 142.4375 103.050781 218.027344 103.050781 305.6875 C 103.050781 311.609375 103.320312 317.460938 103.78125 323.253906 L 60 325.398438 L 149.542969 434.699219 L 220.199219 317.570312 Z M 390.984375 415.339844 C 370.972656 428.015625 347.269531 435.394531 321.820312 435.394531 C 287.527344 435.394531 256.371094 422.058594 233.195312 400.3125 L 183.101562 474.640625 C 220.789062 505.527344 268.988281 524.066406 321.527344 524.066406 C 364.164062 524.066406 403.921875 511.835938 437.542969 490.722656 L 454.816406 518.6875 L 507.296875 387.519531 L 370.566406 382.273438 L 390.984375 415.339844 " fill-opacity="1" fill-rule="nonzero"/></g></svg>